# xmcd
#
# Track frame offsets:
# 150
# 19689
# 31592
# 56697
# 73420
# 88971
# 103023
# 113254
# 126064
# 161350
# 174659
# 191687
# 204656
# 220267
# 240344
#
# Disc length: 3366 seconds
#
#
# Revision: 0
# Processed by: cddbd v1.5.2PL0 Copyright (c) Steve Scherf et al.
# Submitted via: Nero 7, 11, 10, 0 
#
DISCID=c90d240f
DTITLE=The Superstitions - Juke Town
DYEAR=2006
DGENRE=Blues
TTITLE0=Juke Town
TTITLE1=Hawaiian Boogie
TTITLE2=Tin Pan Alley
TTITLE3=Gamblin' For My Bread
TTITLE4=Cleo's Mood
TTITLE5=300 Lbs. Of Joy
TTITLE6=Party Gras
TTITLE7=That's All I Need
TTITLE8=No Minors Allowed
TTITLE9=Jo Ann
TTITLE10=Let Me Explain
TTITLE11=Too Many Cooks
TTITLE12=Nighthawk
TTITLE13=Rock A While
TTITLE14=Voodoo Workin'
EXTD=
EXTT0=Juke Town
EXTT1=Hawaiian Boogie
EXTT2=Tin Pan Alley
EXTT3=Gamblin' For My Bread
EXTT4=Cleo's Mood
EXTT5=300 Lbs. Of Joy
EXTT6=Party Gras
EXTT7=That's All I Need
EXTT8=No Minors Allowed
EXTT9=Jo Ann
EXTT10=Let Me Explain
EXTT11=Too Many Cooks
EXTT12=Nighthawk
EXTT13=Rock A While
EXTT14=Voodoo Workin'
PLAYORDER=
